<svg xmlns="http://www.w3.org/2000/svg" width="600" height="600" viewBox="0 0 600 600"><defs><radialGradient id="bg"><stop stop-color="#3c635f"/><stop offset="1" stop-color="#1d3632"/></radialGradient><linearGradient id="body" x1=".1" y1="0" x2=".8" y2="1"><stop stop-color="#e1eabc"/><stop offset=".43" stop-color="#77a28c"/><stop offset="1" stop-color="#3c635f"/></linearGradient><linearGradient id="metal" x1="0" y1="0" x2="1" y2=".8"><stop stop-color="#e1eabc"/><stop offset=".34" stop-color="#77a28c"/><stop offset=".55" stop-color="#e1eabc"/><stop offset="1" stop-color="#3c635f"/></linearGradient><linearGradient id="wing" x1="0" y1="0" x2="1" y2="1"><stop stop-color="#d1e3a7" stop-opacity=".64"/><stop offset="1" stop-color="#3c635f"/></linearGradient><radialGradient id="orb"><stop stop-color="#fff"/><stop offset=".22" stop-color="#e1eabc"/><stop offset=".52" stop-color="#d1e3a7"/><stop offset="1" stop-color="#d1e3a7" stop-opacity="0"/></radialGradient><linearGradient id="shade" x1="0" y1="0" x2="0" y2="1"><stop offset=".55" stop-color="#1d3632" stop-opacity="0"/><stop offset="1" stop-color="#1d3632" stop-opacity=".86"/></linearGradient><filter id="glow" x="-.5" y="-.5" width="2" height="2"><feGaussianBlur stdDeviation="7"/></filter><filter id="smallglow" x="-.5" y="-.5" width="2" height="2"><feGaussianBlur stdDeviation="2"/></filter></defs><rect width="600" height="600" fill="url(#bg)"/><circle cx="300" cy="278" r="232" fill="none" stroke="#d1e3a7" stroke-opacity=".2"/><circle cx="300" cy="278" r="218" fill="none" stroke="#d1e3a7" stroke-opacity=".09" stroke-width="8"/><circle cx="300" cy="278" r="199" fill="none" stroke="#d1e3a7" stroke-opacity=".14" stroke-dasharray="2 14"/><circle cx="501" cy="250" r="1.4" fill="#d1e3a7" opacity="0.62"/><circle cx="45" cy="501" r="0.8" fill="#d1e3a7" opacity="0.20"/><circle cx="284" cy="204" r="1.6" fill="#d1e3a7" opacity="0.57"/><circle cx="519" cy="266" r="1.6" fill="#d1e3a7" opacity="0.50"/><circle cx="199" cy="478" r="1.4" fill="#d1e3a7" opacity="0.55"/><circle cx="153" cy="67" r="1.8" fill="#d1e3a7" opacity="0.17"/><circle cx="235" cy="518" r="1.8" fill="#d1e3a7" opacity="0.56"/><circle cx="406" cy="529" r="0.7" fill="#d1e3a7" opacity="0.53"/><circle cx="413" cy="152" r="1.8" fill="#d1e3a7" opacity="0.30"/><circle cx="10" cy="99" r="0.5" fill="#d1e3a7" opacity="0.66"/><circle cx="564" cy="337" r="0.6" fill="#d1e3a7" opacity="0.54"/><circle cx="94" cy="472" r="1.1" fill="#d1e3a7" opacity="0.56"/><circle cx="299" cy="350" r="0.8" fill="#d1e3a7" opacity="0.47"/><circle cx="498" cy="47" r="1.6" fill="#d1e3a7" opacity="0.61"/><circle cx="365" cy="414" r="0.5" fill="#d1e3a7" opacity="0.28"/><circle cx="468" cy="19" r="1.1" fill="#d1e3a7" opacity="0.40"/><circle cx="588" cy="161" r="0.4" fill="#d1e3a7" opacity="0.21"/><circle cx="148" cy="313" r="0.7" fill="#d1e3a7" opacity="0.51"/><circle cx="405" cy="135" r="0.5" fill="#d1e3a7" opacity="0.44"/><circle cx="452" cy="355" r="0.6" fill="#d1e3a7" opacity="0.23"/><circle cx="179" cy="328" r="1.6" fill="#d1e3a7" opacity="0.24"/><circle cx="127" cy="480" r="0.6" fill="#d1e3a7" opacity="0.56"/><circle cx="309" cy="557" r="1.1" fill="#d1e3a7" opacity="0.67"/><circle cx="204" cy="372" r="0.5" fill="#d1e3a7" opacity="0.34"/><circle cx="521" cy="279" r="0.7" fill="#d1e3a7" opacity="0.47"/><circle cx="231" cy="555" r="0.6" fill="#d1e3a7" opacity="0.41"/><circle cx="550" cy="241" r="1.5" fill="#d1e3a7" opacity="0.51"/><circle cx="101" cy="303" r="1.2" fill="#d1e3a7" opacity="0.34"/><circle cx="407" cy="568" r="1.6" fill="#d1e3a7" opacity="0.28"/><circle cx="263" cy="406" r="0.8" fill="#d1e3a7" opacity="0.53"/><circle cx="235" cy="93" r="1.6" fill="#d1e3a7" opacity="0.21"/><circle cx="323" cy="558" r="1.8" fill="#d1e3a7" opacity="0.59"/><circle cx="355" cy="515" r="1.7" fill="#d1e3a7" opacity="0.46"/><circle cx="230" cy="396" r="1.6" fill="#d1e3a7" opacity="0.39"/><circle cx="292" cy="403" r="1.6" fill="#d1e3a7" opacity="0.52"/><circle cx="448" cy="565" r="0.5" fill="#d1e3a7" opacity="0.27"/><circle cx="399" cy="37" r="0.6" fill="#d1e3a7" opacity="0.28"/><circle cx="523" cy="226" r="0.5" fill="#d1e3a7" opacity="0.38"/><circle cx="58" cy="278" r="1.2" fill="#d1e3a7" opacity="0.24"/><circle cx="230" cy="4" r="1.5" fill="#d1e3a7" opacity="0.48"/><circle cx="277" cy="290" r="1.3" fill="#d1e3a7" opacity="0.47"/><circle cx="311" cy="167" r="1.1" fill="#d1e3a7" opacity="0.46"/><circle cx="468" cy="83" r="1.6" fill="#d1e3a7" opacity="0.34"/><circle cx="396" cy="48" r="1.0" fill="#d1e3a7" opacity="0.69"/><circle cx="218" cy="107" r="1.4" fill="#d1e3a7" opacity="0.28"/><circle cx="122" cy="502" r="1.8" fill="#d1e3a7" opacity="0.49"/><circle cx="40" cy="276" r="1.5" fill="#d1e3a7" opacity="0.50"/><circle cx="427" cy="398" r="0.8" fill="#d1e3a7" opacity="0.69"/><path d="M-4-8V8M-7-3L7 3M-5 8L4-8" fill="none" stroke="#d1e3a7" opacity=".4" transform="translate(524.0 278.0) rotate(0)"/><path d="M-4-8V8M-7-3L7 3M-5 8L4-8" fill="none" stroke="#d1e3a7" opacity=".4" transform="translate(501.8 375.2) rotate(25.714)"/><path d="M-4-8V8M-7-3L7 3M-5 8L4-8" fill="none" stroke="#d1e3a7" opacity=".4" transform="translate(439.7 453.1) rotate(51.428)"/><path d="M-4-8V8M-7-3L7 3M-5 8L4-8" fill="none" stroke="#d1e3a7" opacity=".4" transform="translate(349.8 496.4) rotate(77.142)"/><path d="M-4-8V8M-7-3L7 3M-5 8L4-8" fill="none" stroke="#d1e3a7" opacity=".4" transform="translate(250.2 496.4) rotate(102.856)"/><path d="M-4-8V8M-7-3L7 3M-5 8L4-8" fill="none" stroke="#d1e3a7" opacity=".4" transform="translate(160.3 453.1) rotate(128.57)"/><path d="M-4-8V8M-7-3L7 3M-5 8L4-8" fill="none" stroke="#d1e3a7" opacity=".4" transform="translate(98.2 375.2) rotate(154.284)"/><path d="M-4-8V8M-7-3L7 3M-5 8L4-8" fill="none" stroke="#d1e3a7" opacity=".4" transform="translate(76.0 278.0) rotate(179.998)"/><path d="M-4-8V8M-7-3L7 3M-5 8L4-8" fill="none" stroke="#d1e3a7" opacity=".4" transform="translate(98.2 180.8) rotate(205.712)"/><path d="M-4-8V8M-7-3L7 3M-5 8L4-8" fill="none" stroke="#d1e3a7" opacity=".4" transform="translate(160.3 102.9) rotate(231.426)"/><path d="M-4-8V8M-7-3L7 3M-5 8L4-8" fill="none" stroke="#d1e3a7" opacity=".4" transform="translate(250.1 59.6) rotate(257.14)"/><path d="M-4-8V8M-7-3L7 3M-5 8L4-8" fill="none" stroke="#d1e3a7" opacity=".4" transform="translate(349.8 59.6) rotate(282.854)"/><path d="M-4-8V8M-7-3L7 3M-5 8L4-8" fill="none" stroke="#d1e3a7" opacity=".4" transform="translate(439.7 102.9) rotate(308.568)"/><path d="M-4-8V8M-7-3L7 3M-5 8L4-8" fill="none" stroke="#d1e3a7" opacity=".4" transform="translate(501.8 180.8) rotate(334.282)"/><ellipse cx="300" cy="557" rx="253" ry="43" fill="#d1e3a7" opacity=".09"/><g stroke="#253a3e" stroke-width="3" stroke-linejoin="round"><path d="M220 239L168 402 194 533 266 484 374 527 410 400 370 245Z" fill="#273c39"/><path d="M244 397L219 508 199 548 245 548 283 453 296 410M308 407L329 501 328 549 374 549 367 480 352 394" fill="url(#body)"/><path d="M228 246L355 242 386 339 347 421 257 430 211 341Z" fill="url(#metal)"/><path d="M236 271L300 302 357 268 346 340 295 361 241 333Z" fill="url(#body)"/><path d="M256 366L343 363 351 387 258 395Z" fill="#bc9b57"/><path d="M286 365L310 365 315 391 289 391Z" fill="#e9d9a3"/><path d="M220 247L192 255 166 289 190 319 236 291M354 246L387 249 414 280 394 312 350 287" fill="url(#body)"/><path d="M191 299L163 354 138 332 122 351 153 393 178 387 220 315M384 304L421 355 449 316 471 332 436 396 418 389 361 319" fill="url(#metal)"/><path d="M261 151L332 151 350 194 330 230 280 235 253 194Z" fill="#d8b993"/><path d="M263 171L331 170 326 196 270 202Z" fill="#344754"/><path d="M272 183L288 187M310 185L326 180" stroke="#bdf8f0"/><path d="M249 171L260 127 302 109 341 130 354 173 321 160 301 169 279 162Z" fill="url(#body)"/><path d="M290 119L301 78 315 122 309 157 298 167Z" fill="url(#metal)"/><path d="M256 207L239 237 267 251 294 234M330 226L352 251 373 234 347 204" fill="url(#metal)"/><path d="M438 455L455 170" stroke="#cda460" stroke-width="13"/><path d="M454 188L438 157 476 38 493 164 464 190Z" fill="url(#metal)" stroke="#d7e3d2"/><path d="M426 200L481 204" stroke="#caaf69" stroke-width="9"/></g><rect width="600" height="600" fill="url(#shade)"/><g fill="#d1e3a7" opacity=".5"><circle cx="108" cy="461" r="2"/><circle cx="478" cy="372" r="2.5"/><circle cx="419" cy="98" r="1.5"/></g></svg>