<svg xmlns="http://www.w3.org/2000/svg" width="600" height="600" viewBox="0 0 600 600"><defs><radialGradient id="bg"><stop stop-color="#57444a"/><stop offset="1" stop-color="#3b2e36"/></radialGradient><linearGradient id="body" x1=".1" y1="0" x2=".8" y2="1"><stop stop-color="#f4cf9e"/><stop offset=".43" stop-color="#988476"/><stop offset="1" stop-color="#57444a"/></linearGradient><linearGradient id="metal" x1="0" y1="0" x2="1" y2=".8"><stop stop-color="#f4cf9e"/><stop offset=".34" stop-color="#988476"/><stop offset=".55" stop-color="#f4cf9e"/><stop offset="1" stop-color="#57444a"/></linearGradient><linearGradient id="wing" x1="0" y1="0" x2="1" y2="1"><stop stop-color="#ffb66e" stop-opacity=".64"/><stop offset="1" stop-color="#57444a"/></linearGradient><radialGradient id="orb"><stop stop-color="#fff"/><stop offset=".22" stop-color="#f4cf9e"/><stop offset=".52" stop-color="#ffb66e"/><stop offset="1" stop-color="#ffb66e" stop-opacity="0"/></radialGradient><linearGradient id="shade" x1="0" y1="0" x2="0" y2="1"><stop offset=".55" stop-color="#3b2e36" stop-opacity="0"/><stop offset="1" stop-color="#3b2e36" stop-opacity=".86"/></linearGradient><filter id="glow" x="-.5" y="-.5" width="2" height="2"><feGaussianBlur stdDeviation="7"/></filter><filter id="smallglow" x="-.5" y="-.5" width="2" height="2"><feGaussianBlur stdDeviation="2"/></filter></defs><rect width="600" height="600" fill="url(#bg)"/><circle cx="300" cy="278" r="232" fill="none" stroke="#ffb66e" stroke-opacity=".2"/><circle cx="300" cy="278" r="218" fill="none" stroke="#ffb66e" stroke-opacity=".09" stroke-width="8"/><circle cx="300" cy="278" r="199" fill="none" stroke="#ffb66e" stroke-opacity=".14" stroke-dasharray="2 14"/><circle cx="285" cy="91" r="1.3" fill="#ffb66e" opacity="0.41"/><circle cx="556" cy="127" r="1.7" fill="#ffb66e" opacity="0.69"/><circle cx="526" cy="582" r="0.8" fill="#ffb66e" opacity="0.47"/><circle cx="216" cy="123" r="1.4" fill="#ffb66e" opacity="0.50"/><circle cx="30" cy="405" r="0.9" fill="#ffb66e" opacity="0.65"/><circle cx="141" cy="147" r="0.8" fill="#ffb66e" opacity="0.38"/><circle cx="198" cy="253" r="0.7" fill="#ffb66e" opacity="0.22"/><circle cx="194" cy="239" r="0.9" fill="#ffb66e" opacity="0.47"/><circle cx="463" cy="549" r="1.6" fill="#ffb66e" opacity="0.17"/><circle cx="155" cy="315" r="1.0" fill="#ffb66e" opacity="0.60"/><circle cx="268" cy="58" r="0.8" fill="#ffb66e" opacity="0.51"/><circle cx="63" cy="369" r="1.4" fill="#ffb66e" opacity="0.41"/><circle cx="468" cy="381" r="1.3" fill="#ffb66e" opacity="0.60"/><circle cx="583" cy="563" r="1.0" fill="#ffb66e" opacity="0.63"/><circle cx="578" cy="142" r="0.7" fill="#ffb66e" opacity="0.64"/><circle cx="429" cy="3" r="1.7" fill="#ffb66e" opacity="0.23"/><circle cx="255" cy="454" r="1.8" fill="#ffb66e" opacity="0.19"/><circle cx="411" cy="208" r="1.0" fill="#ffb66e" opacity="0.24"/><circle cx="214" cy="84" r="1.6" fill="#ffb66e" opacity="0.50"/><circle cx="325" cy="60" r="1.6" fill="#ffb66e" opacity="0.68"/><circle cx="192" cy="96" r="1.8" fill="#ffb66e" opacity="0.62"/><circle cx="75" cy="246" r="1.4" fill="#ffb66e" opacity="0.36"/><circle cx="537" cy="587" r="1.4" fill="#ffb66e" opacity="0.17"/><circle cx="243" cy="383" r="0.7" fill="#ffb66e" opacity="0.20"/><circle cx="245" cy="306" r="0.9" fill="#ffb66e" opacity="0.59"/><circle cx="287" cy="237" r="1.3" fill="#ffb66e" opacity="0.58"/><circle cx="426" cy="365" r="1.6" fill="#ffb66e" opacity="0.67"/><circle cx="380" cy="221" r="1.4" fill="#ffb66e" opacity="0.64"/><circle cx="15" cy="35" r="0.7" fill="#ffb66e" opacity="0.34"/><circle cx="284" cy="589" r="1.4" fill="#ffb66e" opacity="0.36"/><circle cx="514" cy="230" r="1.0" fill="#ffb66e" opacity="0.30"/><circle cx="68" cy="516" r="0.4" fill="#ffb66e" opacity="0.22"/><circle cx="575" cy="278" r="0.7" fill="#ffb66e" opacity="0.20"/><circle cx="255" cy="54" r="1.8" fill="#ffb66e" opacity="0.33"/><circle cx="224" cy="580" r="1.7" fill="#ffb66e" opacity="0.24"/><circle cx="216" cy="195" r="1.4" fill="#ffb66e" opacity="0.37"/><circle cx="310" cy="357" r="0.9" fill="#ffb66e" opacity="0.22"/><circle cx="188" cy="406" r="0.8" fill="#ffb66e" opacity="0.24"/><circle cx="209" cy="85" r="1.7" fill="#ffb66e" opacity="0.40"/><circle cx="345" cy="256" r="1.3" fill="#ffb66e" opacity="0.32"/><circle cx="349" cy="213" r="1.1" fill="#ffb66e" opacity="0.34"/><circle cx="497" cy="335" r="1.0" fill="#ffb66e" opacity="0.26"/><circle cx="587" cy="377" r="1.5" fill="#ffb66e" opacity="0.64"/><circle cx="428" cy="53" r="1.3" fill="#ffb66e" opacity="0.66"/><circle cx="409" cy="291" r="0.4" fill="#ffb66e" opacity="0.52"/><circle cx="272" cy="132" r="0.7" fill="#ffb66e" opacity="0.59"/><circle cx="382" cy="536" r="1.7" fill="#ffb66e" opacity="0.42"/><circle cx="326" cy="184" r="1.8" fill="#ffb66e" opacity="0.70"/><path d="M-4-8V8M-7-3L7 3M-5 8L4-8" fill="none" stroke="#ffb66e" opacity=".4" transform="translate(524.0 278.0) rotate(0)"/><path d="M-4-8V8M-7-3L7 3M-5 8L4-8" fill="none" stroke="#ffb66e" opacity=".4" transform="translate(501.8 375.2) rotate(25.714)"/><path d="M-4-8V8M-7-3L7 3M-5 8L4-8" fill="none" stroke="#ffb66e" opacity=".4" transform="translate(439.7 453.1) rotate(51.428)"/><path d="M-4-8V8M-7-3L7 3M-5 8L4-8" fill="none" stroke="#ffb66e" opacity=".4" transform="translate(349.8 496.4) rotate(77.142)"/><path d="M-4-8V8M-7-3L7 3M-5 8L4-8" fill="none" stroke="#ffb66e" opacity=".4" transform="translate(250.2 496.4) rotate(102.856)"/><path d="M-4-8V8M-7-3L7 3M-5 8L4-8" fill="none" stroke="#ffb66e" opacity=".4" transform="translate(160.3 453.1) rotate(128.57)"/><path d="M-4-8V8M-7-3L7 3M-5 8L4-8" fill="none" stroke="#ffb66e" opacity=".4" transform="translate(98.2 375.2) rotate(154.284)"/><path d="M-4-8V8M-7-3L7 3M-5 8L4-8" fill="none" stroke="#ffb66e" opacity=".4" transform="translate(76.0 278.0) rotate(179.998)"/><path d="M-4-8V8M-7-3L7 3M-5 8L4-8" fill="none" stroke="#ffb66e" opacity=".4" transform="translate(98.2 180.8) rotate(205.712)"/><path d="M-4-8V8M-7-3L7 3M-5 8L4-8" fill="none" stroke="#ffb66e" opacity=".4" transform="translate(160.3 102.9) rotate(231.426)"/><path d="M-4-8V8M-7-3L7 3M-5 8L4-8" fill="none" stroke="#ffb66e" opacity=".4" transform="translate(250.1 59.6) rotate(257.14)"/><path d="M-4-8V8M-7-3L7 3M-5 8L4-8" fill="none" stroke="#ffb66e" opacity=".4" transform="translate(349.8 59.6) rotate(282.854)"/><path d="M-4-8V8M-7-3L7 3M-5 8L4-8" fill="none" stroke="#ffb66e" opacity=".4" transform="translate(439.7 102.9) rotate(308.568)"/><path d="M-4-8V8M-7-3L7 3M-5 8L4-8" fill="none" stroke="#ffb66e" opacity=".4" transform="translate(501.8 180.8) rotate(334.282)"/><ellipse cx="300" cy="557" rx="253" ry="43" fill="#ffb66e" opacity=".09"/><path d="M304 96L329 207 270 281 332 346 281 428 310 546" fill="none" stroke="#ffa973" stroke-width="47" filter="url(#glow)"/><path d="M305 92L319 210 269 285 328 349 276 431 310 555" fill="none" stroke="#fff1ad" stroke-width="11"/><g fill="url(#metal)" stroke="#5b4540" stroke-width="4"><path d="M71 206L160 178 263 202 232 252 266 286 204 326 91 290Z"/><path d="M350 179L431 155 524 219 497 274 370 310 305 277 344 229Z"/><path d="M100 337L203 343 281 318 276 372 249 420 127 461 68 418Z"/><path d="M341 364L438 320 514 354 529 423 423 477 313 423Z"/><path d="M179 488L256 448 270 501 244 546 145 543Z"/></g><rect width="600" height="600" fill="url(#shade)"/><g fill="#ffb66e" opacity=".5"><circle cx="108" cy="461" r="2"/><circle cx="478" cy="372" r="2.5"/><circle cx="419" cy="98" r="1.5"/></g></svg>