<svg xmlns="http://www.w3.org/2000/svg" width="600" height="600" viewBox="0 0 600 600"><defs><radialGradient id="bg"><stop stop-color="#503451"/><stop offset="1" stop-color="#302035"/></radialGradient><linearGradient id="body" x1=".1" y1="0" x2=".8" y2="1"><stop stop-color="#f2c8e3"/><stop offset=".43" stop-color="#b775aa"/><stop offset="1" stop-color="#503451"/></linearGradient><linearGradient id="metal" x1="0" y1="0" x2="1" y2=".8"><stop stop-color="#f2c8e3"/><stop offset=".34" stop-color="#b775aa"/><stop offset=".55" stop-color="#f2c8e3"/><stop offset="1" stop-color="#503451"/></linearGradient><linearGradient id="wing" x1="0" y1="0" x2="1" y2="1"><stop stop-color="#e9a8d3" stop-opacity=".64"/><stop offset="1" stop-color="#503451"/></linearGradient><radialGradient id="orb"><stop stop-color="#fff"/><stop offset=".22" stop-color="#f2c8e3"/><stop offset=".52" stop-color="#e9a8d3"/><stop offset="1" stop-color="#e9a8d3" stop-opacity="0"/></radialGradient><linearGradient id="shade" x1="0" y1="0" x2="0" y2="1"><stop offset=".55" stop-color="#302035" stop-opacity="0"/><stop offset="1" stop-color="#302035" stop-opacity=".86"/></linearGradient><filter id="glow" x="-.5" y="-.5" width="2" height="2"><feGaussianBlur stdDeviation="7"/></filter><filter id="smallglow" x="-.5" y="-.5" width="2" height="2"><feGaussianBlur stdDeviation="2"/></filter></defs><rect width="600" height="600" fill="url(#bg)"/><circle cx="300" cy="278" r="232" fill="none" stroke="#e9a8d3" stroke-opacity=".2"/><circle cx="300" cy="278" r="218" fill="none" stroke="#e9a8d3" stroke-opacity=".09" stroke-width="8"/><circle cx="300" cy="278" r="199" fill="none" stroke="#e9a8d3" stroke-opacity=".14" stroke-dasharray="2 14"/><circle cx="302" cy="464" r="1.3" fill="#e9a8d3" opacity="0.24"/><circle cx="348" cy="477" r="0.9" fill="#e9a8d3" opacity="0.63"/><circle cx="8" cy="98" r="1.0" fill="#e9a8d3" opacity="0.47"/><circle cx="403" cy="412" r="0.9" fill="#e9a8d3" opacity="0.51"/><circle cx="139" cy="471" r="0.6" fill="#e9a8d3" opacity="0.50"/><circle cx="410" cy="198" r="0.7" fill="#e9a8d3" opacity="0.51"/><circle cx="540" cy="404" r="1.8" fill="#e9a8d3" opacity="0.22"/><circle cx="265" cy="277" r="0.7" fill="#e9a8d3" opacity="0.65"/><circle cx="56" cy="109" r="1.6" fill="#e9a8d3" opacity="0.37"/><circle cx="473" cy="319" r="0.4" fill="#e9a8d3" opacity="0.43"/><circle cx="551" cy="24" r="0.6" fill="#e9a8d3" opacity="0.31"/><circle cx="115" cy="330" r="1.3" fill="#e9a8d3" opacity="0.50"/><circle cx="315" cy="290" r="1.4" fill="#e9a8d3" opacity="0.47"/><circle cx="392" cy="598" r="0.8" fill="#e9a8d3" opacity="0.64"/><circle cx="253" cy="268" r="1.2" fill="#e9a8d3" opacity="0.70"/><circle cx="568" cy="474" r="1.7" fill="#e9a8d3" opacity="0.42"/><circle cx="72" cy="485" r="1.9" fill="#e9a8d3" opacity="0.59"/><circle cx="90" cy="189" r="1.4" fill="#e9a8d3" opacity="0.57"/><circle cx="46" cy="425" r="0.6" fill="#e9a8d3" opacity="0.68"/><circle cx="302" cy="319" r="0.9" fill="#e9a8d3" opacity="0.37"/><circle cx="571" cy="556" r="0.5" fill="#e9a8d3" opacity="0.58"/><circle cx="346" cy="72" r="0.6" fill="#e9a8d3" opacity="0.24"/><circle cx="110" cy="193" r="1.2" fill="#e9a8d3" opacity="0.28"/><circle cx="446" cy="425" r="1.4" fill="#e9a8d3" opacity="0.25"/><circle cx="524" cy="199" r="0.7" fill="#e9a8d3" opacity="0.60"/><circle cx="585" cy="92" r="1.3" fill="#e9a8d3" opacity="0.60"/><circle cx="589" cy="324" r="1.0" fill="#e9a8d3" opacity="0.61"/><circle cx="565" cy="535" r="0.6" fill="#e9a8d3" opacity="0.19"/><circle cx="504" cy="179" r="0.5" fill="#e9a8d3" opacity="0.41"/><circle cx="259" cy="202" r="1.1" fill="#e9a8d3" opacity="0.50"/><circle cx="581" cy="255" r="1.4" fill="#e9a8d3" opacity="0.27"/><circle cx="48" cy="217" r="1.5" fill="#e9a8d3" opacity="0.32"/><circle cx="131" cy="568" r="0.5" fill="#e9a8d3" opacity="0.16"/><circle cx="242" cy="493" r="1.9" fill="#e9a8d3" opacity="0.31"/><circle cx="124" cy="551" r="0.5" fill="#e9a8d3" opacity="0.63"/><circle cx="98" cy="96" r="1.9" fill="#e9a8d3" opacity="0.53"/><circle cx="57" cy="181" r="1.6" fill="#e9a8d3" opacity="0.19"/><circle cx="14" cy="35" r="1.4" fill="#e9a8d3" opacity="0.61"/><circle cx="384" cy="539" r="0.5" fill="#e9a8d3" opacity="0.66"/><circle cx="318" cy="96" r="1.3" fill="#e9a8d3" opacity="0.20"/><circle cx="358" cy="216" r="0.5" fill="#e9a8d3" opacity="0.22"/><circle cx="245" cy="514" r="0.6" fill="#e9a8d3" opacity="0.25"/><circle cx="242" cy="147" r="1.3" fill="#e9a8d3" opacity="0.49"/><circle cx="97" cy="77" r="1.0" fill="#e9a8d3" opacity="0.22"/><circle cx="119" cy="91" r="1.0" fill="#e9a8d3" opacity="0.21"/><circle cx="590" cy="272" r="0.6" fill="#e9a8d3" opacity="0.55"/><circle cx="82" cy="541" r="1.8" fill="#e9a8d3" opacity="0.69"/><circle cx="598" cy="469" r="0.7" fill="#e9a8d3" opacity="0.49"/><path d="M-4-8V8M-7-3L7 3M-5 8L4-8" fill="none" stroke="#e9a8d3" opacity=".4" transform="translate(524.0 278.0) rotate(0)"/><path d="M-4-8V8M-7-3L7 3M-5 8L4-8" fill="none" stroke="#e9a8d3" opacity=".4" transform="translate(501.8 375.2) rotate(25.714)"/><path d="M-4-8V8M-7-3L7 3M-5 8L4-8" fill="none" stroke="#e9a8d3" opacity=".4" transform="translate(439.7 453.1) rotate(51.428)"/><path d="M-4-8V8M-7-3L7 3M-5 8L4-8" fill="none" stroke="#e9a8d3" opacity=".4" transform="translate(349.8 496.4) rotate(77.142)"/><path d="M-4-8V8M-7-3L7 3M-5 8L4-8" fill="none" stroke="#e9a8d3" opacity=".4" transform="translate(250.2 496.4) rotate(102.856)"/><path d="M-4-8V8M-7-3L7 3M-5 8L4-8" fill="none" stroke="#e9a8d3" opacity=".4" transform="translate(160.3 453.1) rotate(128.57)"/><path d="M-4-8V8M-7-3L7 3M-5 8L4-8" fill="none" stroke="#e9a8d3" opacity=".4" transform="translate(98.2 375.2) rotate(154.284)"/><path d="M-4-8V8M-7-3L7 3M-5 8L4-8" fill="none" stroke="#e9a8d3" opacity=".4" transform="translate(76.0 278.0) rotate(179.998)"/><path d="M-4-8V8M-7-3L7 3M-5 8L4-8" fill="none" stroke="#e9a8d3" opacity=".4" transform="translate(98.2 180.8) rotate(205.712)"/><path d="M-4-8V8M-7-3L7 3M-5 8L4-8" fill="none" stroke="#e9a8d3" opacity=".4" transform="translate(160.3 102.9) rotate(231.426)"/><path d="M-4-8V8M-7-3L7 3M-5 8L4-8" fill="none" stroke="#e9a8d3" opacity=".4" transform="translate(250.1 59.6) rotate(257.14)"/><path d="M-4-8V8M-7-3L7 3M-5 8L4-8" fill="none" stroke="#e9a8d3" opacity=".4" transform="translate(349.8 59.6) rotate(282.854)"/><path d="M-4-8V8M-7-3L7 3M-5 8L4-8" fill="none" stroke="#e9a8d3" opacity=".4" transform="translate(439.7 102.9) rotate(308.568)"/><path d="M-4-8V8M-7-3L7 3M-5 8L4-8" fill="none" stroke="#e9a8d3" opacity=".4" transform="translate(501.8 180.8) rotate(334.282)"/><ellipse cx="300" cy="557" rx="253" ry="43" fill="#e9a8d3" opacity=".09"/><path d="M299 100L456 162 435 319C425 385 369 452 299 503 218 449 170 386 156 319L137 162Z" fill="url(#body)" stroke="#eec7e8" stroke-width="7"/><path d="M299 132L423 181 408 313C400 365 356 421 299 466 237 420 194 365 184 313L170 181Z" fill="#47456e" stroke="#ce9bd9" stroke-width="4"/><circle cx="298" cy="286" r="83" fill="#734f85" stroke="#e0b5e4" stroke-width="4"/><path d="M252 241L344 333M344 241L252 333" stroke="#eadbed" stroke-width="20" stroke-linecap="round"/><path d="M49 160L187 218 169 183 235 250 153 238 187 223M542 119L410 206 449 196 381 255 406 174 412 205" fill="#eae2f3"/><rect width="600" height="600" fill="url(#shade)"/><g fill="#e9a8d3" opacity=".5"><circle cx="108" cy="461" r="2"/><circle cx="478" cy="372" r="2.5"/><circle cx="419" cy="98" r="1.5"/></g></svg>