<svg xmlns="http://www.w3.org/2000/svg" width="600" height="600" viewBox="0 0 600 600"><defs><radialGradient id="bg"><stop stop-color="#37595a"/><stop offset="1" stop-color="#243738"/></radialGradient><linearGradient id="body" x1=".1" y1="0" x2=".8" y2="1"><stop stop-color="#c5d9d3"/><stop offset=".43" stop-color="#859b96"/><stop offset="1" stop-color="#37595a"/></linearGradient><linearGradient id="metal" x1="0" y1="0" x2="1" y2=".8"><stop stop-color="#c5d9d3"/><stop offset=".34" stop-color="#859b96"/><stop offset=".55" stop-color="#c5d9d3"/><stop offset="1" stop-color="#37595a"/></linearGradient><linearGradient id="wing" x1="0" y1="0" x2="1" y2="1"><stop stop-color="#afdfd6" stop-opacity=".64"/><stop offset="1" stop-color="#37595a"/></linearGradient><radialGradient id="orb"><stop stop-color="#fff"/><stop offset=".22" stop-color="#c5d9d3"/><stop offset=".52" stop-color="#afdfd6"/><stop offset="1" stop-color="#afdfd6" stop-opacity="0"/></radialGradient><linearGradient id="shade" x1="0" y1="0" x2="0" y2="1"><stop offset=".55" stop-color="#243738" stop-opacity="0"/><stop offset="1" stop-color="#243738" stop-opacity=".86"/></linearGradient><filter id="glow" x="-.5" y="-.5" width="2" height="2"><feGaussianBlur stdDeviation="7"/></filter><filter id="smallglow" x="-.5" y="-.5" width="2" height="2"><feGaussianBlur stdDeviation="2"/></filter></defs><rect width="600" height="600" fill="url(#bg)"/><circle cx="300" cy="278" r="232" fill="none" stroke="#afdfd6" stroke-opacity=".2"/><circle cx="300" cy="278" r="218" fill="none" stroke="#afdfd6" stroke-opacity=".09" stroke-width="8"/><circle cx="300" cy="278" r="199" fill="none" stroke="#afdfd6" stroke-opacity=".14" stroke-dasharray="2 14"/><circle cx="453" cy="439" r="1.4" fill="#afdfd6" opacity="0.28"/><circle cx="469" cy="484" r="1.2" fill="#afdfd6" opacity="0.35"/><circle cx="406" cy="303" r="0.9" fill="#afdfd6" opacity="0.54"/><circle cx="379" cy="221" r="1.5" fill="#afdfd6" opacity="0.49"/><circle cx="469" cy="399" r="0.7" fill="#afdfd6" opacity="0.17"/><circle cx="534" cy="102" r="1.7" fill="#afdfd6" opacity="0.30"/><circle cx="125" cy="510" r="1.1" fill="#afdfd6" opacity="0.55"/><circle cx="508" cy="429" r="0.6" fill="#afdfd6" opacity="0.55"/><circle cx="148" cy="202" r="0.5" fill="#afdfd6" opacity="0.25"/><circle cx="337" cy="499" r="1.9" fill="#afdfd6" opacity="0.56"/><circle cx="27" cy="179" r="1.7" fill="#afdfd6" opacity="0.18"/><circle cx="448" cy="583" r="1.4" fill="#afdfd6" opacity="0.64"/><circle cx="83" cy="384" r="1.4" fill="#afdfd6" opacity="0.41"/><circle cx="263" cy="37" r="1.2" fill="#afdfd6" opacity="0.23"/><circle cx="470" cy="237" r="0.6" fill="#afdfd6" opacity="0.34"/><circle cx="298" cy="564" r="1.2" fill="#afdfd6" opacity="0.40"/><circle cx="67" cy="402" r="0.9" fill="#afdfd6" opacity="0.63"/><circle cx="546" cy="202" r="0.7" fill="#afdfd6" opacity="0.45"/><circle cx="56" cy="101" r="1.1" fill="#afdfd6" opacity="0.65"/><circle cx="548" cy="251" r="1.2" fill="#afdfd6" opacity="0.47"/><circle cx="185" cy="164" r="1.7" fill="#afdfd6" opacity="0.48"/><circle cx="553" cy="545" r="1.1" fill="#afdfd6" opacity="0.15"/><circle cx="321" cy="410" r="0.8" fill="#afdfd6" opacity="0.63"/><circle cx="166" cy="454" r="1.8" fill="#afdfd6" opacity="0.36"/><circle cx="94" cy="375" r="1.5" fill="#afdfd6" opacity="0.25"/><circle cx="477" cy="222" r="1.2" fill="#afdfd6" opacity="0.38"/><circle cx="220" cy="366" r="0.7" fill="#afdfd6" opacity="0.24"/><circle cx="89" cy="254" r="0.7" fill="#afdfd6" opacity="0.64"/><circle cx="119" cy="466" r="0.9" fill="#afdfd6" opacity="0.41"/><circle cx="21" cy="125" r="1.7" fill="#afdfd6" opacity="0.56"/><circle cx="216" cy="467" r="1.2" fill="#afdfd6" opacity="0.48"/><circle cx="108" cy="341" r="0.7" fill="#afdfd6" opacity="0.27"/><circle cx="533" cy="141" r="1.0" fill="#afdfd6" opacity="0.58"/><circle cx="85" cy="226" r="1.0" fill="#afdfd6" opacity="0.15"/><circle cx="367" cy="451" r="1.1" fill="#afdfd6" opacity="0.69"/><circle cx="557" cy="352" r="0.9" fill="#afdfd6" opacity="0.45"/><circle cx="251" cy="304" r="0.8" fill="#afdfd6" opacity="0.65"/><circle cx="257" cy="510" r="1.8" fill="#afdfd6" opacity="0.32"/><circle cx="212" cy="229" r="1.3" fill="#afdfd6" opacity="0.20"/><circle cx="397" cy="406" r="0.4" fill="#afdfd6" opacity="0.26"/><circle cx="311" cy="405" r="0.8" fill="#afdfd6" opacity="0.23"/><circle cx="497" cy="113" r="0.8" fill="#afdfd6" opacity="0.69"/><circle cx="464" cy="222" r="0.4" fill="#afdfd6" opacity="0.60"/><circle cx="108" cy="243" r="1.8" fill="#afdfd6" opacity="0.57"/><circle cx="167" cy="574" r="1.7" fill="#afdfd6" opacity="0.40"/><circle cx="424" cy="65" r="1.8" fill="#afdfd6" opacity="0.48"/><circle cx="491" cy="501" r="1.5" fill="#afdfd6" opacity="0.25"/><circle cx="374" cy="161" r="1.0" fill="#afdfd6" opacity="0.19"/><path d="M-4-8V8M-7-3L7 3M-5 8L4-8" fill="none" stroke="#afdfd6" opacity=".4" transform="translate(524.0 278.0) rotate(0)"/><path d="M-4-8V8M-7-3L7 3M-5 8L4-8" fill="none" stroke="#afdfd6" opacity=".4" transform="translate(501.8 375.2) rotate(25.714)"/><path d="M-4-8V8M-7-3L7 3M-5 8L4-8" fill="none" stroke="#afdfd6" opacity=".4" transform="translate(439.7 453.1) rotate(51.428)"/><path d="M-4-8V8M-7-3L7 3M-5 8L4-8" fill="none" stroke="#afdfd6" opacity=".4" transform="translate(349.8 496.4) rotate(77.142)"/><path d="M-4-8V8M-7-3L7 3M-5 8L4-8" fill="none" stroke="#afdfd6" opacity=".4" transform="translate(250.2 496.4) rotate(102.856)"/><path d="M-4-8V8M-7-3L7 3M-5 8L4-8" fill="none" stroke="#afdfd6" opacity=".4" transform="translate(160.3 453.1) rotate(128.57)"/><path d="M-4-8V8M-7-3L7 3M-5 8L4-8" fill="none" stroke="#afdfd6" opacity=".4" transform="translate(98.2 375.2) rotate(154.284)"/><path d="M-4-8V8M-7-3L7 3M-5 8L4-8" fill="none" stroke="#afdfd6" opacity=".4" transform="translate(76.0 278.0) rotate(179.998)"/><path d="M-4-8V8M-7-3L7 3M-5 8L4-8" fill="none" stroke="#afdfd6" opacity=".4" transform="translate(98.2 180.8) rotate(205.712)"/><path d="M-4-8V8M-7-3L7 3M-5 8L4-8" fill="none" stroke="#afdfd6" opacity=".4" transform="translate(160.3 102.9) rotate(231.426)"/><path d="M-4-8V8M-7-3L7 3M-5 8L4-8" fill="none" stroke="#afdfd6" opacity=".4" transform="translate(250.1 59.6) rotate(257.14)"/><path d="M-4-8V8M-7-3L7 3M-5 8L4-8" fill="none" stroke="#afdfd6" opacity=".4" transform="translate(349.8 59.6) rotate(282.854)"/><path d="M-4-8V8M-7-3L7 3M-5 8L4-8" fill="none" stroke="#afdfd6" opacity=".4" transform="translate(439.7 102.9) rotate(308.568)"/><path d="M-4-8V8M-7-3L7 3M-5 8L4-8" fill="none" stroke="#afdfd6" opacity=".4" transform="translate(501.8 180.8) rotate(334.282)"/><ellipse cx="300" cy="557" rx="253" ry="43" fill="#afdfd6" opacity=".09"/><g stroke="#253a3e" stroke-width="3" stroke-linejoin="round"><path d="M220 239L168 402 194 533 266 484 374 527 410 400 370 245Z" fill="#273c39"/><path d="M244 397L219 508 199 548 245 548 283 453 296 410M308 407L329 501 328 549 374 549 367 480 352 394" fill="url(#body)"/><path d="M228 246L355 242 386 339 347 421 257 430 211 341Z" fill="url(#metal)"/><path d="M236 271L300 302 357 268 346 340 295 361 241 333Z" fill="url(#body)"/><path d="M256 366L343 363 351 387 258 395Z" fill="#48686b"/><path d="M286 365L310 365 315 391 289 391Z" fill="#e9d9a3"/><path d="M220 247L192 255 166 289 190 319 236 291M354 246L387 249 414 280 394 312 350 287" fill="url(#body)"/><path d="M191 299L163 354 138 332 122 351 153 393 178 387 220 315M384 304L421 355 449 316 471 332 436 396 418 389 361 319" fill="url(#metal)"/><path d="M261 151L332 151 350 194 330 230 280 235 253 194Z" fill="#819a9e"/><path d="M263 171L331 170 326 196 270 202Z" fill="#344754"/><path d="M272 183L288 187M310 185L326 180" stroke="#bdf8f0"/><path d="M249 171L260 127 302 109 341 130 354 173 321 160 301 169 279 162Z" fill="url(#body)"/><path d="M290 119L301 78 315 122 309 157 298 167Z" fill="url(#metal)"/><path d="M256 207L239 237 267 251 294 234M330 226L352 251 373 234 347 204" fill="url(#metal)"/><path d="M438 455L455 170" stroke="#cda460" stroke-width="13"/><path d="M454 188L438 157 476 38 493 164 464 190Z" fill="url(#metal)" stroke="#d7e3d2"/><path d="M426 200L481 204" stroke="#caaf69" stroke-width="9"/></g><g fill="none" stroke="#254044" stroke-width="4"><path d="M260 130L278 160 268 180 283 211M340 150L318 161 333 202M246 280L267 297 255 326M319 295L299 321 319 351M329 419L348 441 338 466"/></g><rect width="600" height="600" fill="url(#shade)"/><g fill="#afdfd6" opacity=".5"><circle cx="108" cy="461" r="2"/><circle cx="478" cy="372" r="2.5"/><circle cx="419" cy="98" r="1.5"/></g></svg>