<svg xmlns="http://www.w3.org/2000/svg" width="600" height="600" viewBox="0 0 600 600"><defs><radialGradient id="bg"><stop stop-color="#503451"/><stop offset="1" stop-color="#302035"/></radialGradient><linearGradient id="body" x1=".1" y1="0" x2=".8" y2="1"><stop stop-color="#f2c8e3"/><stop offset=".43" stop-color="#b775aa"/><stop offset="1" stop-color="#503451"/></linearGradient><linearGradient id="metal" x1="0" y1="0" x2="1" y2=".8"><stop stop-color="#f2c8e3"/><stop offset=".34" stop-color="#b775aa"/><stop offset=".55" stop-color="#f2c8e3"/><stop offset="1" stop-color="#503451"/></linearGradient><linearGradient id="wing" x1="0" y1="0" x2="1" y2="1"><stop stop-color="#e9a8d3" stop-opacity=".64"/><stop offset="1" stop-color="#503451"/></linearGradient><radialGradient id="orb"><stop stop-color="#fff"/><stop offset=".22" stop-color="#f2c8e3"/><stop offset=".52" stop-color="#e9a8d3"/><stop offset="1" stop-color="#e9a8d3" stop-opacity="0"/></radialGradient><linearGradient id="shade" x1="0" y1="0" x2="0" y2="1"><stop offset=".55" stop-color="#302035" stop-opacity="0"/><stop offset="1" stop-color="#302035" stop-opacity=".86"/></linearGradient><filter id="glow" x="-.5" y="-.5" width="2" height="2"><feGaussianBlur stdDeviation="7"/></filter><filter id="smallglow" x="-.5" y="-.5" width="2" height="2"><feGaussianBlur stdDeviation="2"/></filter></defs><rect width="600" height="600" fill="url(#bg)"/><circle cx="300" cy="278" r="232" fill="none" stroke="#e9a8d3" stroke-opacity=".2"/><circle cx="300" cy="278" r="218" fill="none" stroke="#e9a8d3" stroke-opacity=".09" stroke-width="8"/><circle cx="300" cy="278" r="199" fill="none" stroke="#e9a8d3" stroke-opacity=".14" stroke-dasharray="2 14"/><circle cx="253" cy="327" r="1.0" fill="#e9a8d3" opacity="0.33"/><circle cx="173" cy="168" r="1.8" fill="#e9a8d3" opacity="0.50"/><circle cx="99" cy="591" r="0.7" fill="#e9a8d3" opacity="0.37"/><circle cx="346" cy="541" r="1.8" fill="#e9a8d3" opacity="0.61"/><circle cx="457" cy="337" r="1.6" fill="#e9a8d3" opacity="0.50"/><circle cx="104" cy="7" r="0.6" fill="#e9a8d3" opacity="0.40"/><circle cx="7" cy="6" r="1.7" fill="#e9a8d3" opacity="0.43"/><circle cx="452" cy="355" r="1.3" fill="#e9a8d3" opacity="0.16"/><circle cx="523" cy="376" r="1.2" fill="#e9a8d3" opacity="0.58"/><circle cx="117" cy="160" r="1.2" fill="#e9a8d3" opacity="0.40"/><circle cx="377" cy="263" r="1.2" fill="#e9a8d3" opacity="0.31"/><circle cx="95" cy="444" r="1.1" fill="#e9a8d3" opacity="0.34"/><circle cx="226" cy="250" r="1.7" fill="#e9a8d3" opacity="0.31"/><circle cx="576" cy="174" r="0.7" fill="#e9a8d3" opacity="0.55"/><circle cx="483" cy="459" r="1.6" fill="#e9a8d3" opacity="0.27"/><circle cx="469" cy="208" r="1.8" fill="#e9a8d3" opacity="0.45"/><circle cx="183" cy="156" r="1.8" fill="#e9a8d3" opacity="0.25"/><circle cx="104" cy="63" r="1.3" fill="#e9a8d3" opacity="0.46"/><circle cx="229" cy="396" r="1.8" fill="#e9a8d3" opacity="0.67"/><circle cx="523" cy="136" r="1.4" fill="#e9a8d3" opacity="0.63"/><circle cx="234" cy="108" r="1.0" fill="#e9a8d3" opacity="0.39"/><circle cx="569" cy="349" r="1.8" fill="#e9a8d3" opacity="0.70"/><circle cx="339" cy="13" r="1.8" fill="#e9a8d3" opacity="0.65"/><circle cx="144" cy="42" r="0.7" fill="#e9a8d3" opacity="0.44"/><circle cx="230" cy="583" r="1.3" fill="#e9a8d3" opacity="0.47"/><circle cx="75" cy="298" r="1.2" fill="#e9a8d3" opacity="0.35"/><circle cx="139" cy="33" r="1.8" fill="#e9a8d3" opacity="0.64"/><circle cx="349" cy="304" r="1.3" fill="#e9a8d3" opacity="0.38"/><circle cx="225" cy="156" r="1.9" fill="#e9a8d3" opacity="0.30"/><circle cx="348" cy="357" r="1.6" fill="#e9a8d3" opacity="0.67"/><circle cx="154" cy="191" r="1.1" fill="#e9a8d3" opacity="0.45"/><circle cx="467" cy="99" r="1.5" fill="#e9a8d3" opacity="0.44"/><circle cx="58" cy="334" r="0.6" fill="#e9a8d3" opacity="0.62"/><circle cx="321" cy="394" r="0.7" fill="#e9a8d3" opacity="0.37"/><circle cx="487" cy="478" r="1.9" fill="#e9a8d3" opacity="0.18"/><circle cx="135" cy="442" r="1.2" fill="#e9a8d3" opacity="0.49"/><circle cx="143" cy="200" r="1.2" fill="#e9a8d3" opacity="0.64"/><circle cx="527" cy="332" r="1.7" fill="#e9a8d3" opacity="0.40"/><circle cx="409" cy="576" r="1.4" fill="#e9a8d3" opacity="0.45"/><circle cx="76" cy="27" r="0.7" fill="#e9a8d3" opacity="0.54"/><circle cx="456" cy="44" r="1.0" fill="#e9a8d3" opacity="0.59"/><circle cx="279" cy="191" r="1.0" fill="#e9a8d3" opacity="0.34"/><circle cx="349" cy="494" r="1.0" fill="#e9a8d3" opacity="0.59"/><circle cx="493" cy="56" r="1.7" fill="#e9a8d3" opacity="0.55"/><circle cx="125" cy="205" r="1.1" fill="#e9a8d3" opacity="0.33"/><circle cx="266" cy="120" r="1.8" fill="#e9a8d3" opacity="0.43"/><circle cx="278" cy="9" r="1.2" fill="#e9a8d3" opacity="0.53"/><circle cx="55" cy="85" r="1.0" fill="#e9a8d3" opacity="0.68"/><path d="M-4-8V8M-7-3L7 3M-5 8L4-8" fill="none" stroke="#e9a8d3" opacity=".4" transform="translate(524.0 278.0) rotate(0)"/><path d="M-4-8V8M-7-3L7 3M-5 8L4-8" fill="none" stroke="#e9a8d3" opacity=".4" transform="translate(501.8 375.2) rotate(25.714)"/><path d="M-4-8V8M-7-3L7 3M-5 8L4-8" fill="none" stroke="#e9a8d3" opacity=".4" transform="translate(439.7 453.1) rotate(51.428)"/><path d="M-4-8V8M-7-3L7 3M-5 8L4-8" fill="none" stroke="#e9a8d3" opacity=".4" transform="translate(349.8 496.4) rotate(77.142)"/><path d="M-4-8V8M-7-3L7 3M-5 8L4-8" fill="none" stroke="#e9a8d3" opacity=".4" transform="translate(250.2 496.4) rotate(102.856)"/><path d="M-4-8V8M-7-3L7 3M-5 8L4-8" fill="none" stroke="#e9a8d3" opacity=".4" transform="translate(160.3 453.1) rotate(128.57)"/><path d="M-4-8V8M-7-3L7 3M-5 8L4-8" fill="none" stroke="#e9a8d3" opacity=".4" transform="translate(98.2 375.2) rotate(154.284)"/><path d="M-4-8V8M-7-3L7 3M-5 8L4-8" fill="none" stroke="#e9a8d3" opacity=".4" transform="translate(76.0 278.0) rotate(179.998)"/><path d="M-4-8V8M-7-3L7 3M-5 8L4-8" fill="none" stroke="#e9a8d3" opacity=".4" transform="translate(98.2 180.8) rotate(205.712)"/><path d="M-4-8V8M-7-3L7 3M-5 8L4-8" fill="none" stroke="#e9a8d3" opacity=".4" transform="translate(160.3 102.9) rotate(231.426)"/><path d="M-4-8V8M-7-3L7 3M-5 8L4-8" fill="none" stroke="#e9a8d3" opacity=".4" transform="translate(250.1 59.6) rotate(257.14)"/><path d="M-4-8V8M-7-3L7 3M-5 8L4-8" fill="none" stroke="#e9a8d3" opacity=".4" transform="translate(349.8 59.6) rotate(282.854)"/><path d="M-4-8V8M-7-3L7 3M-5 8L4-8" fill="none" stroke="#e9a8d3" opacity=".4" transform="translate(439.7 102.9) rotate(308.568)"/><path d="M-4-8V8M-7-3L7 3M-5 8L4-8" fill="none" stroke="#e9a8d3" opacity=".4" transform="translate(501.8 180.8) rotate(334.282)"/><ellipse cx="300" cy="557" rx="253" ry="43" fill="#e9a8d3" opacity=".09"/><ellipse cx="301" cy="356" rx="233" ry="143" fill="#9c618f" opacity=".45"/><ellipse cx="301" cy="356" rx="201" ry="119" fill="#100f1e" stroke="#c28dac" stroke-width="9"/><g fill="url(#body)" stroke="#5c3c55" stroke-width="4"><path d="M67 323L76 265 137 238 183 261 154 299 110 310Z"/><path d="M178 246L244 208 306 228 300 263 256 250 214 271Z"/><path d="M329 227L379 207 447 232 418 284 355 269Z"/><path d="M453 265L501 268 541 327 499 349 474 316Z"/><path d="M463 390L513 361 508 421 449 455 407 432Z"/><path d="M149 410L171 464 233 476 251 448 203 423Z"/><path d="M71 347L115 331 138 371 150 413 99 423 69 388Z"/></g><path d="M229 277L259 394 291 324 334 411 368 278" fill="none" stroke="#d9a5df" stroke-width="6" opacity=".8"/><path d="M298 93L273 136 312 157 290 213" fill="none" stroke="#f7c8ed" stroke-width="11"/><rect width="600" height="600" fill="url(#shade)"/><g fill="#e9a8d3" opacity=".5"><circle cx="108" cy="461" r="2"/><circle cx="478" cy="372" r="2.5"/><circle cx="419" cy="98" r="1.5"/></g></svg>